<?xml version="1.0" encoding="UTF-8" standalone="no"?>
<!-- Created with Inkscape (http://www.inkscape.org/) -->

<svg
   width="560mm"
   height="160mm"
   viewBox="0 0 560 160"
   version="1.1"
   id="svg1"
   inkscape:version="1.3.2 (091e20e, 2023-11-25, custom)"
   sodipodi:docname="logo.svg"
   xml:space="preserve"
   inkscape:export-filename="test-cor.png"
   inkscape:export-xdpi="300"
   inkscape:export-ydpi="300"
   xmlns:inkscape="http://www.inkscape.org/namespaces/inkscape"
   xmlns:sodipodi="http://sodipodi.sourceforge.net/DTD/sodipodi-0.dtd"
   xmlns:xlink="http://www.w3.org/1999/xlink"
   xmlns="http://www.w3.org/2000/svg"
   xmlns:svg="http://www.w3.org/2000/svg"><sodipodi:namedview
     id="namedview1"
     pagecolor="#ffffff"
     bordercolor="#000000"
     borderopacity="0.25"
     inkscape:showpageshadow="2"
     inkscape:pageopacity="0.0"
     inkscape:pagecheckerboard="0"
     inkscape:deskcolor="#d1d1d1"
     inkscape:document-units="mm"
     inkscape:zoom="0.12519823"
     inkscape:cx="3662.1924"
     inkscape:cy="2879.4337"
     inkscape:window-width="1920"
     inkscape:window-height="991"
     inkscape:window-x="-9"
     inkscape:window-y="-9"
     inkscape:window-maximized="1"
     inkscape:current-layer="layer1" /><defs
     id="defs1"><rect
       x="978.44836"
       y="43.930336"
       width="1417.7517"
       height="627.00568"
       id="rect2" /><linearGradient
       id="linearGradient28"
       inkscape:collect="always"><stop
         style="stop-color:#c4e9ff;stop-opacity:1;"
         offset="0"
         id="stop28" /><stop
         style="stop-color:#32b4ff;stop-opacity:1;"
         offset="1"
         id="stop29" /></linearGradient><linearGradient
       inkscape:collect="always"
       xlink:href="#linearGradient28"
       id="linearGradient29"
       x1="214.99811"
       y1="91.154716"
       x2="94.516975"
       y2="21.481131"
       gradientUnits="userSpaceOnUse"
       gradientTransform="translate(9.7132075,9.6815253)" /></defs><g
     inkscape:label="Camada 1"
     inkscape:groupmode="layer"
     id="layer1"><rect
       style="fill:#ffffff;stroke:#000000;stroke-width:1.79786;stroke-dasharray:none"
       id="rect5"
       width="240.17464"
       height="136.46327"
       x="10.140464"
       y="10.240862"
       inkscape:label="fundo-branco" /><rect
       style="display:inline;fill:url(#linearGradient29);fill-opacity:1;stroke:none;stroke-width:1.87075"
       id="rect1"
       width="237.97542"
       height="99.208061"
       x="11.241265"
       y="11.339928"
       inkscape:label="ceu" /><rect
       style="fill:#ffffff;fill-opacity:1;stroke:#fefeff;stroke-width:2;stroke-opacity:1"
       id="rect26"
       width="126.83208"
       height="21.667923"
       x="12.164858"
       y="89.628693"
       inkscape:label="cobertura-branca3" /><path
       style="display:none;fill:#ffe680;fill-opacity:1;stroke:#ffe680;stroke-width:1.80864;stroke-dasharray:none;stroke-opacity:1"
       d="M 124.78809,87.06117 2.0412607,79.356782 l -0.023363,4.709992 48.9582303,10.33376 56.432782,-0.925132 1.997,-1.209752 1.92746,-0.02182 2.85029,-1.450065 2.49984,0.0109 1.32001,-1.668122 1.39009,0.207153 1.9625,-1.253819 0.53734,0.686875 1.63541,-1.057569 0.79435,0.08723 z"
       id="path38"
       inkscape:label="traço-sol" /><rect
       style="fill:#ffffff;fill-opacity:1;stroke:#ffffff;stroke-width:0.499244;stroke-opacity:1"
       id="rect25-1"
       width="14.544032"
       height="27.32481"
       x="234.39764"
       y="106.26212"
       inkscape:label="cobertura-branca" /><circle
       style="fill:#ffe680;fill-opacity:1;stroke:#000000;stroke-width:0.59926;stroke-dasharray:none"
       id="path24"
       cx="225.19469"
       cy="101.36055"
       r="9.9730988"
       inkscape:label="sol" /><rect
       style="fill:#ffffff;fill-opacity:1;stroke:#ffffff;stroke-width:2;stroke-opacity:1"
       id="rect25"
       width="233.86415"
       height="27.271696"
       x="13.503766"
       y="109.62513"
       inkscape:label="cobertura-branca" /><path
       style="fill:#ffe680;fill-opacity:0;stroke:#000000;stroke-width:0.5;stroke-dasharray:none"
       d="M 213.13019,97.100394 10.086792,45.545678"
       id="path30"
       inkscape:label="raio-sol-30" /><path
       style="display:inline;fill:#ffffff;stroke:#000000;stroke-width:1;stroke-dasharray:none"
       d="m 9.7132075,88.78813 2.4283025,-1.214152 1.681132,0.466982 2.241509,-1.961322 0.74717,0.373586 0.280188,-1.400944 2.148114,-0.560377 0.933962,0.466981 1.400944,1.307547 1.774528,1.307547 1.214151,-0.280188 1.027358,-0.74717 1.587736,-0.74717 1.400944,0.653774 1.307547,0.373584 h 1.587736 l 1.307547,-1.120754 0.747169,-0.74717 0.933963,0.560377 1.494339,-0.280188 3.082075,1.774528 2.148115,0.653775 2.054717,-0.0934 1.68113,-1.214149 1.400945,-0.933963 0.933961,-1.961322 1.027359,-0.933961 1.120756,-0.653774 -0.186793,-0.560377 1.214149,-0.373584 0.0934,-1.027359 0.933961,-0.653774 1.027358,-0.74717 0.466982,-0.747171 v -0.466979 l 2.148115,0.653773 2.334905,0.373583 2.241508,-0.840565 0.74717,-1.214149 2.334906,-1.027359 1.400944,-0.933963 1.21415,-0.560377 0.653774,-2.148115 1.120754,-0.747167 0.933963,-2.241511 0.466982,-0.74717 1.494338,-0.74717 1.961322,-0.373584 h 0.840565 l 2.334905,-2.054717 1.027359,-1.214151 0.74717,-1.587736 0.840565,-1.587735 1.027359,-1.681134 0.653775,-1.68113 0.93396,-0.466982 0.280192,-1.307547 0.93396,-2.428301 0.466982,-1.307549 1.214152,-0.560377 0.74717,-1.307547 2.895282,-1.611085 0.840565,-1.260848 0.583727,-1.004009 1.050708,-1.097407 1.49434,-2.451651 0.700471,-0.700471 0.490329,-1.49434 0.653775,-0.490331 0.350236,-0.98066 0.396934,-0.513678 1.074057,-0.116747 0.583727,-0.560377 0.72382,0.0934 0.770517,0.817216 1.027359,0.210142 1.167452,-1.307547 0.490331,0.23349 1.470993,1.097404 1.54103,2.031371 1.35425,0.910611 0.30354,2.288209 0.98066,0.887264 1.68113,2.871933 1.2375,1.074058 0.21014,1.050705 1.54104,2.334906 0.70047,1.797878 0.95731,0.466981 0.23349,0.700472 0.53703,-0.817216 1.91463,1.284197 0.63042,1.844575 0.79387,0.817218 1.70448,2.008018 0.16344,1.027359 1.00401,1.167453 0.42028,0.350237 1.16746,2.101413 0.44363,0.326887 0.77052,1.424292 0.63042,0.443632 0.72382,0.980663 1.35425,1.050705 0.28019,0.560379 0.46698,0.256839 1.77453,0.07005 0.51368,0.326888 0.74717,1.634434 0.74717,0.74717 1.12075,0.770517 0.60708,1.774529 1.35424,0.420282 0.88726,0.677125 0.39694,0.72382 0.18679,0.490331 1.16745,-0.233492 0.74717,0.513681 0.1868,0.677122 1.44764,0.630425 1.02736,1.961319 1.07405,0.560377 1.86793,1.611085 0.95731,0.233492 0.77052,0.793866 1.05071,-0.677121 0.98065,1.050708 0.37359,1.214152 3.57241,2.825234 1.37759,1.424291 1.02736,-0.21014 1.12075,0.513678 1.93798,-0.21014 0.77051,-0.280188 1.3776,0.396933 0.93396,0.723821 2.70849,0.980659 0.56038,0.396936 2.63844,-1.237501 1.70448,2.171462 2.63845,0.443632 2.07806,-0.140094 2.31156,-0.373584 1.1441,0.723821 3.24552,0.116744 2.10142,1.470991 c 0,0 0.77052,0.490331 0.86391,0.490331 0.0934,0 0.91061,0 0.91061,0 l 0.63043,-0.560379 1.47099,1.120756 2.07807,0.303538 0.44363,-0.583726 1.21415,0.350234 0.44363,0.887264 1.2842,0.280189 1.56439,-0.537028 1.42429,-1.050708 1.40094,0.186793 0.70047,0.420283 1.16746,-0.326887 6.56108,3.222165 1.40094,0.25684 2.40496,3.175487 h 0.95731 l 0.81722,0.88728 2.26485,-0.16345 2.89529,2.05472 2.28821,-0.0234 2.3349,0.86391 3.22217,0.53703 0.56038,0.37359"
       id="path1" /><path
       style="display:inline;fill:#ffffff;stroke:#000000;stroke-width:1;stroke-dasharray:none"
       d="m 10.740566,95.185771 2.194812,-2.381605 2.241509,0.373587 3.829245,-0.74717 4.202831,-1.634435 1.494339,-1.307547 3.642453,0.0467 2.194811,2.475 2.334906,0.280188 0.98066,1.027359 1.961321,-0.98066 0.607075,1.260848 0.326887,0.280189 1.167453,0.560377 1.074057,-0.140095 1.120754,1.120757 2.661793,0.747167 0.98066,-0.233489 0.793869,0.700471 1.074055,-0.18679 0.607075,0.747167 0.607076,-0.420283 0.373587,1.307547 0.420282,-0.373583 0.326885,0.980659 1.027359,-1.167453 0.326887,0.980663 0.420283,-0.186794 0.280188,1.821224 1.774529,1.02737 0.466982,0.84057 1.774528,0.70047 2.008018,0.56038 1.914623,0.74718 0.887265,0.51368 3.291528,5.16059"
       id="path2"
       sodipodi:nodetypes="cccccccccccccccccccccccccccccccccccc" /><path
       style="display:inline;fill:#ffffff;stroke:#000000;stroke-width:1;stroke-dasharray:none"
       d="m 73.596226,115.96645 1.587735,-1.16745 1.447642,-0.23349 0.607076,1.26085 c 0,0 1.120753,1.44764 1.26085,1.72783 0.140094,0.28019 1.961319,0.23349 1.961319,0.23349 l 1.774529,-0.14009 1.074058,0.42028 2.241507,-1.68113 1.120757,-0.1401 1.074055,-1.72783 0.607075,0.56038 0.793869,-1.49434 0.840566,1.07406 1.354246,-1.21415 0.607076,1.86792 2.241507,-0.56038 0.74717,0.70048 0.933964,-0.98067 0.700471,0.0934 2.288206,-1.68113 1.074058,-1.35425 0.466978,0.98066 1.16746,-2.61509 1.68113,0.65377 0.28018,-0.84056 1.02736,0.79386 3.59576,-1.26085 1.35424,-0.18679 1.35425,-1.12075 1.30755,-1.86793 1.40094,-0.23349 1.40095,-0.79386 0.18679,-0.93397 1.54104,0.28019 2.3816,-1.44765 1.91462,-0.0467 2.80189,-1.58774 h 2.5684 l 1.30754,-1.774537 1.44764,0.23349 1.86793,-1.354243 0.51368,0.653775 1.58773,-1.027359 0.88727,0.0934 0.74717,-1.354246 1.96132,0.140095 0.65377,-2.194812 0.98066,-0.0467 1.07406,-0.887264 0.93396,0.280188 0.46698,-1.167453 0.28019,0.933961 1.21415,-2.194811 0.98066,0.840568 1.12076,0.74717 1.72783,-0.0467 3.03537,0.560377 3.68916,-0.326888 3.40896,-0.280188 1.26085,0.373586 1.91462,-0.607076 -0.0467,0.653772 1.72783,-0.560377 0.51368,0.233493 1.26085,-0.326888 0.37358,0.607076 2.6151,0.186791 1.12075,0.140094 0.51368,-0.560377 0.79387,0.466982 3.22217,-0.700472 0.84057,-0.420282 0.37358,0.700471 3.08208,0.466982 0.74717,0.653772 1.63443,1.214151 1.30755,0.373584 0.60707,-0.980659 0.84057,0.793869 2.4283,0.466981 0.79387,-0.326887 0.88726,0.466982 1.21415,1.260848 0.84057,0.0467 1.26085,-0.326888 0.84056,-0.700471 1.07406,-0.56038 1.49434,0.420286 1.35425,-0.186793 4.06273,1.68113 2.70849,1.68113 0.88727,-0.326884 2.475,2.801901 0.84056,1.21416 3.92265,2.61509 h 4.8566 l 2.28821,1.63444"
       id="path3" /><path
       style="display:inline;fill:#ffffff;stroke:#000000;stroke-width:1;stroke-dasharray:none"
       d="m 250.30095,104.12033 -1.02363,1.08968 -1.35385,0.62739 -0.1651,0.52833 -1.18874,-0.9576 -1.55197,0.92457 -1.4529,-0.19812 -0.23114,-0.49531 c 0,0 -1.48593,0.56135 -1.61801,0.56135 -0.13208,0 -0.89155,-0.49531 -0.89155,-0.49531 l -0.82552,0.72646 -0.9576,-0.29719 -0.4953,-0.36322 -1.58499,0.52832 -0.9576,0.52833 -0.72645,-0.72645 -1.32082,0.26417 -3.03789,1.94821 -3.20299,0.56135 h -1.48593 l -2.2454,-0.7925 -1.71707,-1.55196 -1.1227,1.38686 -0.72645,-1.15572 -1.71706,1.05666 -2.14634,-0.89156 -0.82552,0.99062 -2.80674,0.1651 -2.11332,0.33021 -2.34446,0.13208 -1.1227,0.39625 -3.76434,-3.66528 -2.04727,2.21238 -2.50957,2.87278 -2.17935,2.04728 -1.65103,1.25478 -0.56135,0.62739 -2.04727,0.79249 -1.51895,-0.42926 -0.72645,0.72645 -2.01425,-1.51895 -1.05666,1.35384 -3.16997,-0.19812 -2.27842,0.36323 -3.59924,-0.33021 -1.71707,-0.82551 -1.32082,-1.65103 -2.0803,1.91519 -0.69343,-0.23114 -0.56135,0.66041 -0.69343,-0.26416 -0.66041,0.62739 -1.1227,-0.13209 -0.59437,0.56135 -3.63226,-0.42926 -1.1227,0.56134 -0.66041,-0.13208 -0.29719,0.52833 -2.01425,-1.15572 -0.33021,0.49531 -3.33507,-1.94821 -1.48592,1.48592 -3.79737,-2.14633 -2.04727,1.32082 -1.78311,0.36323 -2.14634,0.26416 -2.21238,-0.56135 -1.88217,0.1651 -2.01425,-0.3302 -1.38687,-0.19813 -4.88704,3.3681 -3.07091,-1.15572 -1.22176,-0.1651 -1.18874,0.75947 -1.18874,1.75009 -1.71707,0.92457 -3.6983,4.95309 -4.92006,1.65103 -2.17936,1.91519 -2.83976,-0.033 -4.6559,4.75496 -1.37997,0.10834 -3.08208,6.11746 -5.463675,7.65849"
       id="path4"
       sodipodi:nodetypes="ccccccccsccccccccccccccccccccccccccccccccccccccccccccccccccccccccccccccccccccccccccc" /><path
       style="fill:#ffffff;stroke:#000000;stroke-width:1;stroke-dasharray:none"
       d="m 73.923113,116.05985 -2.381604,-1.63443 -0.23349,-2.75519 -2.708492,-2.00802 -1.541036,-0.32689 -0.887264,-0.93396 -4.016039,1.26085 v 2.24151 l -3.175471,-0.65378 -4.062735,-3.59575 -1.587736,0.42028 -0.980662,-1.96132 -5.13679,1.91462 -4.249529,-0.93396 -3.268869,1.44764 -4.856603,0.37359 -6.631132,-0.1401 -17.278302,-3.68915"
       id="path5" /><path
       style="fill:#ffffff;fill-opacity:0;stroke:#000000;stroke-width:0.5;stroke-dasharray:none"
       d="m 99.093397,36.766433 -1.027359,1.272524 -0.74717,1.179126 -0.198467,-0.245165 -0.72382,1.634434 -1.167453,0.793869 -0.805543,0.140094 v 0.875589 l 0.614731,1.837142 -0.561351,1.717069 0.429268,0.462285 -0.429268,1.023639 0.297185,1.122698 -0.297185,0.462288 -0.330205,-0.396248 -0.165103,1.254782 -0.03302,1.882171 -0.462288,0.957596 -0.396248,-0.396245 -0.363225,0.858533 -0.03302,0.792493 -0.759473,0.924576 0.231142,1.155719 -0.396245,-0.198123 0.594371,2.179357 0.297185,0.396245 -0.561351,0.528331 0.165103,0.62739 -0.495308,0.561348 0.09906,1.287802 -0.429268,0.429267 -0.594371,-0.297185 0.03302,2.37748 -0.528328,1.584986 -0.957596,0.792493 -0.858533,0.957596 -1.089678,2.080297 -0.771887,1.566766 -3.268868,-1.074057 -1.634434,1.774528 -1.260849,1.727831 -3.549057,-0.700472 -3.549056,3.829245 -1.774529,1.72783"
       id="path7" /><path
       style="fill:#ffffff;fill-opacity:0;stroke:#000000;stroke-width:0.5;stroke-dasharray:none"
       d="m 47.752885,84.968385 0.660411,-2.245397 2.377479,-3.03789 2.905808,-2.641645 2.509562,1.584987 1.584987,-0.396246 1.717069,1.84915 2.641645,1.056658"
       id="path8" /><path
       style="fill:#ffffff;fill-opacity:0;stroke:#000000;stroke-width:0.5;stroke-dasharray:none"
       d="m 102.43492,70.17518 1.84915,-0.528331 4.75496,3.830383 1.84915,-0.264162 4.4908,3.566218"
       id="path9" /><path
       style="fill:#ffffff;fill-opacity:0;stroke:#000000;stroke-width:0.5;stroke-dasharray:none"
       d="m 101.24618,65.42022 -2.509564,-1.188741 -1.320821,-0.132083 -1.452906,-2.905807 -1.981232,-2.641645 -1.584986,0.660411"
       id="path10" /><path
       style="fill:#ffffff;fill-opacity:0;stroke:#000000;stroke-width:0.5;stroke-dasharray:none"
       d="m 123.83224,71.760166 -0.79249,-3.037893 -4.35872,-2.641642 -1.58498,0.924576"
       id="path11" /><path
       style="fill:#ffffff;fill-opacity:0;stroke:#000000;stroke-width:0.5;stroke-dasharray:none"
       d="m 118.81311,80.345509 1.32083,-4.622877 1.84915,1.849149 0.39625,-4.622876 1.84914,2.113314 1.98124,-0.264163 1.4529,1.717069"
       id="path12" /><path
       style="fill:#ffffff;fill-opacity:0;stroke:#000000;stroke-width:0.5;stroke-dasharray:none"
       d="m 108.37862,58.287779 4.49079,1.056658 2.37748,3.169973 1.18874,1.452904"
       id="path13" /><path
       style="fill:#ffffff;fill-opacity:0;stroke:#000000;stroke-width:0.5;stroke-dasharray:none"
       d="m 106.13322,68.061863 2.37748,-2.113315 2.37748,1.717069"
       id="path14" /><path
       style="fill:#ffffff;fill-opacity:0;stroke:#000000;stroke-width:0.5;stroke-dasharray:none"
       d="m 100.84993,52.344081 2.37748,-2.37748 1.58499,1.717069 0.66041,-0.52833 2.11331,2.377479"
       id="path15" /><path
       style="fill:#ffffff;fill-opacity:0;stroke:#000000;stroke-width:0.5;stroke-dasharray:none"
       d="m 103.92084,46.268298 -0.0991,-4.523814 -1.2878,-1.089679"
       id="path16" /><path
       style="fill:#ffffff;fill-opacity:0;stroke:#000000;stroke-width:0.5;stroke-dasharray:none"
       d="m 98.010163,60.863384 2.047277,-3.368099 2.77372,-1.188738 0.52833,-1.584987 2.31144,3.434139 0.72645,-0.198126 0.99062,3.368099"
       id="path17" /><path
       style="fill:#ffffff;fill-opacity:0;stroke:#000000;stroke-width:0.5;stroke-dasharray:none"
       d="m 80.245107,85.232551 7.66077,-2.641645 4.490794,-3.169973 3.434138,-6.075781 3.169973,4.226629 4.490798,-0.264162 3.6983,3.6983 6.60411,3.169973 6.33995,5.547453"
       id="path18" /><path
       style="fill:#ffffff;fill-opacity:0;stroke:#000000;stroke-width:0.5;stroke-dasharray:none"
       d="m 93.909905,49.561715 -1.634435,-2.428301 -0.373583,-1.774529 -2.241511,2.24151 -1.774528,3.408961"
       id="path19" /><path
       style="fill:#ffffff;fill-opacity:0;stroke:#000000;stroke-width:0.5;stroke-dasharray:none"
       d="m 82.328772,55.772565 2.428304,-1.49434 1.774528,-1.541037 2.101414,3.362264 1.774528,-0.466981 1.120754,1.49434"
       id="path20" /><path
       style="fill:#ffffff;fill-opacity:0;stroke:#000000;stroke-width:0.5;stroke-dasharray:none"
       d="m 85.083963,61.096148 3.735848,-1.72783 1.821225,2.148113"
       id="path21" /><path
       style="fill:#ffffff;fill-opacity:0;stroke:#000000;stroke-width:0.5;stroke-dasharray:none"
       d="m 69.150202,72.684739 8.585343,-3.698301 2.37748,2.37748 5.679535,-5.811618 3.169973,1.188741"
       id="path22" /><path
       style="fill:#ffffff;fill-opacity:0;stroke:#000000;stroke-width:0.5;stroke-dasharray:none"
       d="m 78.779718,79.448508 2.288206,-1.027359 1.074058,-1.26085 1.027358,0.933963 0.793867,-1.541037 0.466981,0.326885 1.821228,-2.475 2.148112,1.821228 1.260848,-0.466982 1.307547,0.793869"
       id="path23" /><path
       style="fill:#ffe680;fill-opacity:0;stroke:#000000;stroke-width:0.5;stroke-dasharray:none"
       d="M 214.81132,93.73813 60.89434,10.615488"
       id="path26"
       inkscape:label="raio-sol-26" /><path
       style="fill:#ffe680;fill-opacity:0;stroke:#000000;stroke-width:0.5;stroke-dasharray:none"
       d="M 217.14623,90.936242 138.88961,10.606101"
       id="path27"
       inkscape:label="raio-sol-27" /><path
       style="fill:#ffe680;fill-opacity:0;stroke:#000000;stroke-width:0.5;stroke-dasharray:none"
       d="M 219.856,89.393139 180.75967,9.9456893"
       id="path28"
       inkscape:label="raio-sol-28" /><path
       style="fill:#ffe680;fill-opacity:0;stroke:#000000;stroke-width:0.5;stroke-dasharray:none"
       d="M 222.49765,88.270441 206.5157,10.077772"
       id="path29"
       inkscape:label="raio-sol-29" /><path
       style="fill:#ffe680;fill-opacity:0;stroke:#000000;stroke-width:0.5;stroke-dasharray:none"
       d="M 228.70551,88.534606 245.8762,10.341936"
       id="path31"
       inkscape:label="raio-sol-31" /><path
       style="fill:#ffe680;fill-opacity:0;stroke:#000000;stroke-width:0.5;stroke-dasharray:none"
       d="M 225.56856,88.006276 V 10.05511"
       id="path32"
       inkscape:label="raio-sol-32" /><path
       style="fill:#ffe680;fill-opacity:0;stroke:#000000;stroke-width:0.5;stroke-dasharray:none"
       d="M 199.68113,80.475866 143.6434,39.755111"
       id="path33"
       inkscape:label="raio-sol-33" /><path
       style="fill:#ffe680;fill-opacity:0;stroke:#000000;stroke-width:0.5;stroke-dasharray:none"
       d="M 206.77925,73.190961 174.09057,28.17398"
       id="path34"
       inkscape:label="raio-sol-34" /><path
       style="fill:#ffe680;fill-opacity:0;stroke:#000000;stroke-width:0.5;stroke-dasharray:none"
       d="M 213.87736,67.02681 197.81321,19.02115"
       id="path35"
       inkscape:label="raio-sol-35" /><path
       style="fill:#ffe680;fill-opacity:0;stroke:#000000;stroke-width:0.5;stroke-dasharray:none"
       d="M 184.73774,84.024924 114.31698,56.566431"
       id="path36"
       inkscape:label="raio-sol-36" /><path
       style="fill:#ffe680;fill-opacity:1;stroke:#000000;stroke-width:0.5;stroke-dasharray:none"
       d="m 237.5066,97.894263 12.60849,-3.268869"
       id="path47"
       inkscape:label="raio-sol-47" /><path
       style="fill:#ffe680;fill-opacity:1;stroke:#000000;stroke-width:0.5;stroke-dasharray:none"
       d="m 236.15236,94.205111 14.19622,-7.705188"
       id="path48"
       inkscape:label="raio-sol-48" /><path
       style="fill:#ffe680;fill-opacity:1;stroke:#000000;stroke-width:0.5;stroke-dasharray:none"
       d="M 237.97359,100.80503 H 250.0684"
       id="path49"
       inkscape:label="raio-sol-49" /><path
       style="fill:#ffe680;fill-opacity:1;stroke:#000000;stroke-width:0.5;stroke-dasharray:none"
       d="m 237.88019,103.68485 8.26556,2.05472"
       id="path50"
       inkscape:label="raio-sol-50" /><path
       style="fill:#ffe680;fill-opacity:1;stroke:#000000;stroke-width:0.5;stroke-dasharray:none"
       d="M 234.05094,91.77681 250.11509,75.012186"
       id="path51"
       inkscape:label="raio-sol-51" /><path
       style="fill:#ffe680;fill-opacity:1;stroke:#000000;stroke-width:0.5;stroke-dasharray:none"
       d="M 231.78608,89.628695 250.11509,52.737188"
       id="path52"
       inkscape:label="raio-sol-52" /><path
       style="fill:#ffe680;fill-opacity:1;stroke:#000000;stroke-width:0.5;stroke-dasharray:none"
       d="M 221.53585,63.851336 216.86604,16.873037"
       id="path53"
       inkscape:label="raio-sol-53" /><path
       style="fill:#ffe680;fill-opacity:1;stroke:#000000;stroke-width:0.5;stroke-dasharray:none"
       d="m 229.75472,64.224923 5.04339,-44.55"
       id="path54"
       inkscape:label="raio-sol-54" /><path
       style="fill:#ffe680;fill-opacity:1;stroke:#000000;stroke-width:0.5;stroke-dasharray:none"
       d="M 238.34717,66.559828 247.4066,39.755111"
       id="path55"
       inkscape:label="raio-sol-55" /><path
       style="fill:#ffe680;fill-opacity:1;stroke:#000000;stroke-width:0.5;stroke-dasharray:none"
       d="m 246.28585,72.070205 3.54906,-5.603772"
       id="path56"
       inkscape:label="raio-sol-56" /><text
       xml:space="preserve"
       transform="matrix(0.26458333,0,0,0.26458333,12.189312,-3.7392003)"
       id="text1"
       style="font-size:200px;font-family:'PT Serif';-inkscape-font-specification:'PT Serif';white-space:pre;shape-inside:url(#rect2);display:inline;fill:#37414b;fill-opacity:1;stroke:#3e4651;stroke-width:0;stroke-dasharray:none;stroke-opacity:1"
       inkscape:label="titulo"><tspan
         x="978.44922"
         y="237.88158"
         id="tspan13"><tspan
           style="font-size:213.333px"
           id="tspan1">T</tspan><tspan
           style="font-family:Bitter;-inkscape-font-specification:Bitter"
           id="tspan2">he </tspan><tspan
           style="font-size:213.333px"
           id="tspan3">E</tspan><tspan
           dx="0 0 0 0 0 -0.00010681152"
           style="font-family:Bitter;-inkscape-font-specification:Bitter"
           id="tspan4">rebor
</tspan></tspan><tspan
         x="978.44922"
         y="504.54781"
         id="tspan16"><tspan
           style="font-size:213.333px"
           id="tspan14">F</tspan><tspan
           style="font-family:Bitter;-inkscape-font-specification:Bitter"
           id="tspan15">oundry</tspan></tspan></text></g></svg>
